<?xml version="1.0" encoding="UTF-8"?>
<svg version="1.1" xmlns="http://www.w3.org/2000/svg" width="192" height="192">
<path d="M0 0 C63.36 0 126.72 0 192 0 C192 63.36 192 126.72 192 192 C128.64 192 65.28 192 0 192 C0 128.64 0 65.28 0 0 Z " fill="#FDFDFD" transform="translate(0,0)"/>
<path d="M0 0 C0.3734761 3.42353094 0.57873868 5.91060954 -1.0625 9 C-4.1636097 10.60057275 -6.6826428 9.71086226 -10 9 C-10.99 8.67 -11.98 8.34 -13 8 C-23.65911187 7.41760888 -32.62445709 7.35985341 -41.1796875 14.3046875 C-47.54371136 20.23169684 -50.36171022 27.21282666 -51.5 35.75 C-51.14744145 43.74666882 -47.35576367 52.89423633 -41.68359375 58.56640625 C-41.12800781 59.03949219 -40.57242188 59.51257813 -40 60 C-39.43410156 60.50402344 -38.86820313 61.00804688 -38.28515625 61.52734375 C-30.92686433 66.78742965 -20.61465097 66.34793504 -12 65 C-7.82569119 63.55110487 -4.49850589 61.67605012 -1 59 C0.26070312 58.07767578 0.26070312 58.07767578 1.546875 57.13671875 C10.02586651 49.75135513 13.24302536 38.90977363 16.4934082 28.54272461 C18.54646746 22.08430128 20.89302683 16.45388373 25 11 C25.45890625 10.36320312 25.9178125 9.72640625 26.390625 9.0703125 C33.32916388 0.18745778 43.05648186 -4.47545471 54 -6 C65.50900453 -7.20899502 75.22017977 -4.1937689 84.4375 2.8125 C92.01724131 9.36031542 98.48757169 17.88385216 100 28 C100.89257735 42.31050238 99.25786298 52.79460207 90.2734375 64.484375 C84.63383228 70.7247629 77.96400142 74.52841335 70 77 C69.4225 77.18304688 68.845 77.36609375 68.25 77.5546875 C56.46477503 79.88717994 44.56431884 78.23051776 34.5625 71.625 C31.03961092 69.14823368 28.91829451 66.88004552 27 63 C27.125 60.3125 27.125 60.3125 28 58 C31 56 31 56 33.875 56.125 C37.47084346 57.13183617 39.17557857 58.58890854 42 61 C47.40087364 64.6435542 51.33079151 65.71841023 57.8125 65.625 C58.60567627 65.61662109 59.39885254 65.60824219 60.21606445 65.59960938 C69.2864684 65.25056917 74.75973429 61.58357324 80.9375 55.125 C86.55540855 48.07611474 87.69469127 41.60662028 87.47265625 32.609375 C86.46417898 24.90827583 83.16168533 18.26020371 77 13.4375 C75.11644358 12.14116466 75.11644358 12.14116466 73 11 C72.06929687 10.46117188 71.13859375 9.92234375 70.1796875 9.3671875 C62.68157034 6.14318135 52.55242789 7.13528597 45 10 C33.62040061 15.92181095 29.77130271 27.99602761 26.1262207 39.48510742 C21.31453764 54.61052156 13.34898992 66.38424773 -0.75 74.25 C-12.80938667 79.84555542 -24.1313031 80.06578238 -36.59375 76.2578125 C-48.34414882 71.91878908 -55.02892449 63.34228121 -60.8359375 52.61328125 C-65.47825504 42.19143415 -63.65755212 28.46389912 -60 18 C-55.16821374 8.3803528 -47.6854968 1.4968378 -38 -3 C-36.98679687 -3.48146484 -36.98679687 -3.48146484 -35.953125 -3.97265625 C-24.20834883 -8.71913534 -10.42676077 -6.95117385 0 0 Z " fill="#070707" transform="translate(78,60)"/>
</svg>
